<svg width="148.923681640625px" height="128.03500976562498px" xmlns="http://www.w3.org/2000/svg" viewBox="175.5381591796875 10.982495117187511 148.923681640625 128.03500976562498" style="background: none;" preserveAspectRatio="xMidYMid"><defs><filter id="editing-lego" x="-100%" y="-100%" width="300%" height="300%"><feFlood flood-color="#000000" result="f1"></feFlood><feFlood flood-color="rgba(0%,0%,0%,0.784)" result="f2"></feFlood><feMorphology operator="dilate" radius="3" in="SourceAlpha"></feMorphology><feConvolveMatrix order="5,5" divisor="1" result="cm1" kernelMatrix="0 1 1 1 0  1 0 0 0 1  1 0 0 0 1  1 0 0 0 1  0 1 1 1 0"></feConvolveMatrix><feComposite operator="in" in="f1" in2="cm1" result="c1"></feComposite><feMorphology operator="dilate" radius="3"></feMorphology><feConvolveMatrix order="5,5" divisor="1" result="cm2" kernelMatrix="0 1 1 1 0  1 0 0 0 1  1 0 0 0 1  1 0 0 0 1  0 1 1 1 0"></feConvolveMatrix><feComposite operator="in" in="f2" in2="cm2" result="c2"></feComposite><feMerge><feMergeNode in="c2"></feMergeNode><feMergeNode in="c1"></feMergeNode><feMergeNode in="SourceGraphic"></feMergeNode></feMerge></filter></defs><g filter="url(#editing-lego)"><g transform="translate(215.52281141281128, 101.07999992370605)"><path d="M-4.03 8.96L-4.03 8.96L-4.03 8.96Q-4.35 9.66-4.61 9.66L-4.61 9.66L-4.61 9.66Q-4.86 9.66-4.86 9.02L-4.86 9.02L-4.86 9.02Q-4.86 5.31 6.40-12.64L6.40-12.64L6.40-12.64Q17.66-30.59 21.50-35.14L21.50-35.14L21.50-35.14Q23.17-40.38 25.28-41.98L25.28-41.98L25.28-41.98Q25.73-42.30 26.66-42.30L26.66-42.30L26.66-42.30Q27.58-42.30 29.66-41.47L29.66-41.47L29.66-41.47Q31.74-40.64 31.74-39.49L31.74-39.49L31.74-39.49Q31.74-38.98 31.23-38.59L31.23-38.59L31.23-38.59Q28.35-36.16 26.75-29.44L26.75-29.44L26.75-29.44Q25.15-22.72 25.15-15.74L25.15-15.74L25.15-15.74Q25.15-7.42 27.07-2.75L27.07-2.75L27.07-2.75Q29.70-9.54 39.07-25.31L39.07-25.31L39.07-25.31Q48.45-41.09 49.54-41.09L49.54-41.09L49.54-41.09Q49.60-41.09 50.11-41.15L50.11-41.15L50.11-41.15Q52.10-41.41 52.10-40.83L52.10-40.83L52.10-40.83Q52.10-40.58 51.65-39.81L51.65-39.81L51.65-39.81Q45.12-31.30 38.08-19.97L38.08-19.97L38.08-19.97Q31.04-8.64 27.71-1.34L27.71-1.34L27.71-1.34Q28.99 0.77 30.72 1.60L30.72 1.60L30.72 1.60Q31.49 1.98 32.19 1.98L32.19 1.98L32.19 1.98Q32.90 1.98 33.28 1.76L33.28 1.76L33.28 1.76Q33.66 1.54 33.79 1.63L33.79 1.63L33.79 1.63Q33.92 1.73 33.92 1.92L33.92 1.92L33.92 1.92Q33.92 2.11 33.79 2.24L33.79 2.24L33.79 2.24Q32.32 3.33 31.10 3.33L31.10 3.33L31.10 3.33Q27.26 3.33 24.58-0.35L24.58-0.35L24.58-0.35Q21.89-4.03 20.54-9.54L20.54-9.54L20.54-9.54Q19.20-15.04 19.20-19.97L19.20-19.97L19.20-19.97Q19.20-25.47 20.42-30.98L20.42-30.98L20.42-30.98Q13.57-21.70 6.14-9.57L6.14-9.57L6.14-9.57Q-1.28 2.56-4.03 8.96ZM45.82-15.17L45.82-15.17L45.82-15.17Q43.46-21.50 43.46-27.36L43.46-27.36L43.46-27.36Q43.46-33.22 44.80-35.26L44.80-35.26L44.80-35.26Q45.50-36.61 48.51-37.38L48.51-37.38L48.51-37.38Q49.60-37.70 50.34-37.70L50.34-37.70L50.34-37.70Q51.07-37.70 51.07-37.12L51.07-37.12L51.07-37.12Q51.07-36.80 50.82-36.35L50.82-36.35L50.82-36.35Q49.15-33.79 49.15-28.83L49.15-28.83L49.15-28.83Q49.15-23.87 50.05-19.58L50.05-19.58L50.05-19.58Q72.90-42.50 87.87-42.50L87.87-42.50L87.87-42.50Q88.58-42.50 88.58-42.24L88.58-42.24L88.58-42.24Q88.58-41.98 88.38-41.98L88.38-41.98L88.38-41.98Q88.19-41.98 88.06-41.98L88.06-41.98L88.06-41.98Q80.38-41.98 65.15-29.76L65.15-29.76L65.15-29.76Q58.11-24.19 50.62-17.02L50.62-17.02L50.62-17.02Q52.22-10.88 54.78-5.95L54.78-5.95L54.78-5.95Q57.34-1.02 59.84 0.32L59.84 0.32L59.84 0.32Q61.18 1.09 62.08 1.09L62.08 1.09L62.08 1.09Q64.90 1.09 65.98-0.19L65.98-0.19L65.98-0.19Q66.11-0.32 66.27-0.32L66.27-0.32L66.27-0.32Q66.43-0.32 66.50-0.16L66.50-0.16L66.50-0.16Q66.56 0 66.43 0.19L66.43 0.19L66.43 0.19Q65.02 1.98 61.31 1.98L61.31 1.98L61.31 1.98Q57.60 1.98 53.57-2.30L53.57-2.30L53.57-2.30Q49.54-6.59 46.66-13.12L46.66-13.12L46.66-13.12Q34.69-1.34 29.57 5.70L29.57 5.70L29.57 5.70Q28.99 6.53 28.64 6.53L28.64 6.53L28.64 6.53Q28.29 6.53 28.29 6.21L28.29 6.21L28.29 6.21Q28.29 5.89 28.80 5.18L28.80 5.18L28.80 5.18Q36.35-4.99 45.82-15.17Z" fill="#0040c2"></path></g></g><style>text {
  font-size: 64px;
  font-family: Arial Black;
  dominant-baseline: central;
  text-anchor: middle;
}</style></svg>